<svg id="Main_content" data-name="Main content" xmlns="http://www.w3.org/2000/svg" viewBox="0 0 9.82 10"><defs><style>.cls-1{fill:#fbfbfb;}</style></defs><title>calendar</title><path class="cls-1" d="M7863.16,3653.58a0.47,0.47,0,0,0,.48-0.46v-0.87a0.48,0.48,0,0,0-1,0v0.87A0.47,0.47,0,0,0,7863.16,3653.58Z" transform="translate(-7860.5 -3651.78)"/><path class="cls-1" d="M7867.67,3653.58a0.47,0.47,0,0,0,.48-0.46v-0.87a0.48,0.48,0,0,0-1,0v0.87A0.47,0.47,0,0,0,7867.67,3653.58Z" transform="translate(-7860.5 -3651.78)"/><path class="cls-1" d="M7869.81,3652.65h-1.22v0.46a0.92,0.92,0,0,1-1.84,0v-0.46h-2.66v0.46a0.92,0.92,0,0,1-1.84,0v-0.46H7861a0.5,0.5,0,0,0-.51.5v1.51h9.82v-1.51A0.5,0.5,0,0,0,7869.81,3652.65Z" transform="translate(-7860.5 -3651.78)"/><path class="cls-1" d="M7860.5,3661.28a0.5,0.5,0,0,0,.51.5h8.79a0.5,0.5,0,0,0,.51-0.5v-6h-9.82v6Zm6.81-4.61h2.24v1.57h-2.24v-1.57Zm0,2.15h2.24v1.57h-2.24v-1.57Zm-3-2.15h2.24v1.57h-2.24v-1.57Zm0,2.15h2.24v1.57h-2.24v-1.57Zm-2.95-2.15h2.24v1.57h-2.24v-1.57Zm0,2.15h2.24v1.57h-2.24v-1.57Z" transform="translate(-7860.5 -3651.78)"/></svg>
