<?xml version="1.0" encoding="utf-8"?>
<!-- Generator: Adobe Illustrator 16.0.0, SVG Export Plug-In . SVG Version: 6.00 Build 0)  -->
<!DOCTYPE svg PUBLIC "-//W3C//DTD SVG 1.1//EN" "http://www.w3.org/Graphics/SVG/1.1/DTD/svg11.dtd">
<svg version="1.1" id="Layer_1" xmlns="http://www.w3.org/2000/svg" xmlns:xlink="http://www.w3.org/1999/xlink" x="0px" y="0px"
	 width="120px" height="120px" viewBox="0 0 120 120" enable-background="new 0 0 120 120" xml:space="preserve">
<path fill="#373737" d="M298.514-334.011c1.439,1.476,2.168,3.413,2.15,5.355c0.019-1.944-0.71-3.881-2.15-5.358
	c-0.803-0.821-6.624-6.769-15.205-15.188C291.891-340.782,297.712-334.833,298.514-334.011z"/>
<path fill="#373737" d="M299.252-324.325c0.934-1.304,1.398-2.819,1.412-4.331C300.65-327.145,300.186-325.629,299.252-324.325z"/>
<g>
	<path fill="#373737" d="M41.493,39.82c-4.081,4.284-8.438,10.134-9.964,13.617c1.763,3.511,4.554,7.993,7.054,10.255
		c0,0,4.637-2.877,14.042-6.536c0,0-0.501-7.483,0.893-14.678C53.517,42.479,47.97,40.077,41.493,39.82z"/>
	<path fill="#373737" d="M80,59.024c0,0-5.729,4.427-14.211,6.712c0.191,2.465,0.561,9.438,0.033,13.881l12.486,3.576
		c0,0,6.62-6.047,9.272-12.701C86.312,68.246,83.066,62.682,80,59.024z"/>
	<path fill="#373737" d="M60,13.998c-24.806,0-45,20.188-45,45.004c0,24.807,20.194,45,45,45c24.812,0,45-20.193,45-45
		C105,34.187,84.812,13.998,60,13.998z M60,94.477c-3.328,0-6.553-0.46-9.613-1.321l0.033-0.007l-0.044-6.68
		c-3.829-2.227-8.366-4.709-12.584-8.438c-1.874,1.295-3.691,2.646-5.395,3.233c-5.054-6.131-7.877-13.716-7.877-22.263
		c0-11.761,5.757-22.201,14.59-28.661l4.071,1.271c0,0,4.163-3.749,8.761-7.171c2.592-0.601,5.29-0.923,8.058-0.923
		c4.219,0,8.274,0.745,12.029,2.102l-3.388,9.097v0.044c0,0,7.597,3.326,12.859,8.596l0.016-0.005
		c0.06-0.039,4.944-2.701,7.827-4.269c3.874,5.68,6.143,12.538,6.143,19.918C95.486,78.559,79.561,94.477,60,94.477z"/>
</g>
</svg>
