<?xml version="1.0" encoding="utf-8"?>
<!-- Generator: Adobe Illustrator 16.0.0, SVG Export Plug-In . SVG Version: 6.00 Build 0)  -->
<!DOCTYPE svg PUBLIC "-//W3C//DTD SVG 1.1//EN" "http://www.w3.org/Graphics/SVG/1.1/DTD/svg11.dtd">
<svg version="1.1" xmlns="http://www.w3.org/2000/svg" xmlns:xlink="http://www.w3.org/1999/xlink" x="0px" y="0px" width="120px"
	 height="120px" viewBox="0 0 120 120" enable-background="new 0 0 120 120" xml:space="preserve">
<g id="Layer_1" display="none">
	<g display="inline">
		<path fill="#4D4D4D" d="M35.628,70.956c1.741,5.621,4.967,10.589,9.221,14.444c1.92-4.83,3.527-9.733,4.545-14.444H35.628z"/>
		<path fill="#4D4D4D" d="M31.557,122.844h10.432c1.951-3.239,4.615-7.854,7.435-13.296h29.362
			c-6.664,7.527-12.912,13.169-13.053,13.296h12.814c11.314-11.538,34.438-38.037,34.438-61.884
			c0-22.994-20.483-48.498-31.545-60.596H69.157c1.645,1.628,6.15,6.205,11.404,12.513H50.921c-2.354-4.983-4.598-9.291-6.35-12.513
			H34.417c1.284,2.244,3.781,6.734,6.636,12.513H14.511v8.857h30.694c4.81,10.865,9.492,23.874,10.489,35.049h-5.329
			c-0.605-6.33-2.476-13.247-4.921-20.031C39.632,41.769,35.62,48.812,34.5,56.783H14.511v8.857h41.114
			c-1.217,11.229-6.42,24.254-11.689,35.049H14.511v8.858h24.854C35.404,116.831,32.138,121.944,31.557,122.844z M53.763,100.689
			c1.227-2.659,2.429-5.422,3.562-8.244c2.953,0.884,6.081,1.36,9.321,1.36c11.4,0,21.427-5.878,27.219-14.767
			c1.336-2.689,2.455-5.396,3.292-8.083H63.789c0.32-1.796,0.566-3.571,0.729-5.315h39.253c-1.728,11.91-9.577,24.672-17.628,35.049
			H53.763z M87.478,21.734c7.604,10.434,14.916,23.183,16.381,35.049h-5.343c-0.38-2.792-1.115-5.632-2.129-8.481
			c-5.022-11.439-16.447-19.428-29.74-19.428c-2.949,0-5.806,0.395-8.521,1.132c-1.031-2.829-2.127-5.601-3.249-8.272H87.478z"/>
	</g>
	<circle display="inline" fill="#BC0C19" cx="78.932" cy="79.735" r="34.068"/>
	
		<text transform="matrix(1.3478 0 0 1 56.124 96.2461)" display="inline" fill="#FFFFFF" font-family="'Arial-Black'" font-size="44.4107">X</text>
</g>
<g id="own-goal">
	<g>
		<path fill="#C1272D" d="M36.465,35.609c-5.188,5.451-10.73,12.889-12.674,17.315c2.248,4.464,5.789,10.168,8.966,13.042
			c0,0,5.905-3.656,17.862-8.308c0,0-0.638-9.518,1.132-18.666C51.75,38.993,44.7,35.939,36.465,35.609z"/>
		<path fill="#C1272D" d="M85.439,60.036c0,0-7.289,5.628-18.078,8.531c0.244,3.138,0.711,11.996,0.041,17.654l15.875,4.552
			c0,0,8.426-7.694,11.797-16.155C93.459,71.762,89.332,64.683,85.439,60.036z"/>
		<path fill="#C1272D" d="M59.999,2.773C28.444,2.773,2.773,28.446,2.773,60c0,31.555,25.671,57.227,57.226,57.227
			c31.556,0,57.228-25.672,57.228-57.227C117.227,28.446,91.555,2.773,59.999,2.773z M59.999,105.119
			c-4.231,0-8.331-0.588-12.219-1.683l0.041-0.006l-0.063-8.501c-4.866-2.826-10.641-5.985-16.006-10.724
			c-2.375,1.65-4.69,3.362-6.853,4.114C18.469,80.521,14.881,70.874,14.881,60c0-14.955,7.315-28.231,18.552-36.445l5.181,1.618
			c0,0,5.289-4.766,11.139-9.117c3.293-0.768,6.722-1.174,10.245-1.174c5.369,0,10.521,0.944,15.3,2.671L70.99,29.118l-0.006,0.057
			c0,0,9.664,4.231,16.361,10.936c0,0,0.012-0.009,0.018-0.011c0.076-0.045,6.285-3.432,9.957-5.427
			c4.918,7.225,7.799,15.946,7.799,25.328C105.119,84.879,84.879,105.119,59.999,105.119z"/>
	</g>
</g>
<g id="Layer_3" display="none">
	<g display="inline">
		
			<line fill="none" stroke="#4D4D4D" stroke-width="25" stroke-linecap="round" stroke-miterlimit="10" x1="-21" y1="60.5" x2="76" y2="60.5"/>
		
			<line fill="none" stroke="#4D4D4D" stroke-width="25" stroke-linejoin="round" stroke-miterlimit="10" x1="75.5" y1="54" x2="75.5" y2="140"/>
	</g>
	<g display="inline">
		<path fill="#373737" d="M1702.7,405.398c-15.388,16.164-31.825,38.227-37.59,51.355c6.667,13.24,17.168,30.158,26.592,38.68
			c0,0,17.514-10.842,52.975-24.641c0,0-1.893-28.23,3.357-55.361C1748.034,415.432,1727.124,406.377,1702.7,405.398z"/>
		<path fill="#373737" d="M1847.948,477.842c0,0-21.617,16.693-53.611,25.305c0.721,9.307,2.106,35.58,0.121,52.36l47.08,13.502
			c0,0,24.992-22.822,34.988-47.916C1871.736,512.619,1859.5,491.625,1847.948,477.842z"/>
		<path fill="#373737" d="M1772.499,308.012c-93.588,0-169.725,76.139-169.725,169.725c0,93.589,76.137,169.728,169.725,169.728
			c93.59,0,169.73-76.139,169.73-169.728C1942.229,384.15,1866.089,308.012,1772.499,308.012z M1772.499,611.554
			c-12.553,0-24.711-1.742-36.24-4.99l0.121-0.016l-0.186-25.213c-14.433-8.383-31.559-17.752-47.473-31.805
			c-7.044,4.894-13.909,9.97-20.323,12.201c-19.07-23.131-29.714-51.743-29.714-83.995c0-44.354,21.695-83.727,55.023-108.09
			l15.367,4.797c0,0,15.686-14.135,33.037-27.039c9.766-2.277,19.939-3.482,30.387-3.482c15.922,0,31.201,2.801,45.375,7.924
			l-12.777,34.299l-0.014,0.168c0,0,28.66,12.549,48.525,32.434c0,0,0.033-0.025,0.047-0.031
			c0.225-0.135,18.643-10.18,29.531-16.098c14.59,21.43,23.133,47.295,23.133,75.119
			C1906.319,551.524,1846.29,611.554,1772.499,611.554z"/>
	</g>
	<circle display="inline" fill="#FFFFFF" cx="75.667" cy="53" r="29.333"/>
	<g display="inline">
		<path fill="#959595" d="M61.872,38.599c-3.025,3.18-6.262,7.523-7.396,10.105c1.313,2.605,3.379,5.934,5.233,7.609
			c0,0,3.446-2.131,10.423-4.847c0,0-0.372-5.555,0.66-10.893C70.792,40.575,66.68,38.793,61.872,38.599z"/>
		<path fill="#959595" d="M90.451,52.854c0,0-4.254,3.284-10.55,4.979c0.142,1.831,0.414,7,0.023,10.302l9.263,2.656
			c0,0,4.919-4.489,6.887-9.428C95.131,59.696,92.724,55.566,90.451,52.854z"/>
		<path fill="#959595" d="M75.606,19.439c-18.415,0-33.395,14.98-33.395,33.394c0,18.413,14.979,33.395,33.395,33.395
			C94.019,86.228,109,71.246,109,52.833C109,34.419,94.019,19.439,75.606,19.439z M75.606,79.163c-2.47,0-4.862-0.342-7.131-0.984
			l0.023-0.002l-0.037-4.96c-2.839-1.65-6.209-3.492-9.34-6.258c-1.386,0.963-2.737,1.961-3.999,2.4
			c-3.75-4.551-5.845-10.182-5.845-16.526c0-8.727,4.268-16.473,10.825-21.267l3.025,0.944c0,0,3.085-2.781,6.498-5.32
			c1.922-0.447,3.925-0.685,5.98-0.685c3.132,0,6.14,0.55,8.926,1.558l-2.514,6.749l-0.003,0.034c0,0,5.639,2.469,9.549,6.381
			c0,0,0.006-0.005,0.009-0.005c0.044-0.029,3.666-2.005,5.81-3.169c2.87,4.217,4.553,9.306,4.553,14.78
			C101.936,67.35,90.122,79.163,75.606,79.163z"/>
	</g>
</g>
</svg>
