<svg id="Main_content" data-name="Main content" xmlns="http://www.w3.org/2000/svg" viewBox="0 0 9.14 10"><defs><style>.cls-1{fill:#fbfbfb;}</style></defs><title>shield</title><path class="cls-1" d="M7684.82,3652.78H7677a0.63,0.63,0,0,0-.64.62v4.52c0,3.85,3.77,4.61,4.33,4.82a0.66,0.66,0,0,0,.21,0h0a0.66,0.66,0,0,0,.21,0c1.41-.47,4.39-1.3,4.39-4.82v-4.52A0.63,0.63,0,0,0,7684.82,3652.78Zm-4.55,2.65a0.08,0.08,0,0,1,.08.08v0.5a0.08,0.08,0,0,1-.08.08h-0.93v1a0.08,0.08,0,0,1-.08.08h-0.63a0.08,0.08,0,0,1-.08-0.08v-2.72a0.08,0.08,0,0,1,.08-0.08h1.71a0.08,0.08,0,0,1,.08.08v0.51a0.08,0.08,0,0,1-.08.08h-1v0.47h0.93Zm3.91,2.49c0,2.42-1.74,3.05-3.32,3.58a4.46,4.46,0,0,1-3-2l6.27-5.44v3.9Z" transform="translate(-7676.33 -3652.78)"/><path class="cls-1" d="M7683,3657.21a1.69,1.69,0,0,0-.74-0.13,1.5,1.5,0,0,0-1.62,1.53,1.42,1.42,0,0,0,.4,1,1.61,1.61,0,0,0,1.16.42,2,2,0,0,0,.76-0.13,0.09,0.09,0,0,0,.05-0.1l-0.09-.48a0.09,0.09,0,0,0,0-.06,0.1,0.1,0,0,0-.08,0,1.47,1.47,0,0,1-.5.08,0.8,0.8,0,0,1,0-1.61,1.28,1.28,0,0,1,.5.09,0.1,0.1,0,0,0,.08,0,0.09,0.09,0,0,0,0-.06l0.13-.48A0.09,0.09,0,0,0,7683,3657.21Z" transform="translate(-7676.33 -3652.78)"/></svg>