<?xml version="1.0" encoding="utf-8"?>
<!-- Generator: Adobe Illustrator 16.0.0, SVG Export Plug-In . SVG Version: 6.00 Build 0)  -->
<!DOCTYPE svg PUBLIC "-//W3C//DTD SVG 1.1//EN" "http://www.w3.org/Graphics/SVG/1.1/DTD/svg11.dtd">
<svg version="1.1" id="Layer_1" xmlns="http://www.w3.org/2000/svg" xmlns:xlink="http://www.w3.org/1999/xlink" x="0px" y="0px"
	 width="120px" height="120px" viewBox="0 0 120 120" enable-background="new 0 0 120 120" xml:space="preserve">
<path fill="#373737" d="M298.514-334.011c1.439,1.476,2.168,3.413,2.15,5.354c0.02-1.944-0.71-3.881-2.15-5.358
	c-0.803-0.821-6.623-6.769-15.205-15.188C291.891-340.782,297.712-334.833,298.514-334.011z"/>
<path fill="#373737" d="M299.252-324.325c0.934-1.304,1.398-2.819,1.412-4.331C300.65-327.145,300.186-325.629,299.252-324.325z"/>
<path fill="#373737" d="M119.462,27.037c-0.726-0.743-17.843-18.23-24.769-21.198C87.79,2.882,75.854,2.39,75.35,2.371
	c-0.687-0.024-1.338,0.33-1.695,0.916C73.493,3.55,69.618,9.739,60,9.739S46.506,3.551,46.352,3.297
	c-0.354-0.597-1.002-0.949-1.7-0.926C44.147,2.39,32.21,2.882,25.306,5.839C18.38,8.807,1.262,26.294,0.538,27.037
	c-0.64,0.656-0.718,1.676-0.184,2.422l12.154,16.979c0.55,0.768,1.583,1.013,2.417,0.573l13.525-7.113v42.355
	c0,1.043,0.847,1.892,1.892,1.892h6.983l6.04-11.231c1.312-2.445,3.851-3.965,6.626-3.965c1.236,0,2.466,0.311,3.556,0.896
	l0.146,0.078l0.142,0.086l18.086,11.08l18.203-42.313l0.101-0.234l0.121-0.225c1.312-2.441,3.852-3.958,6.623-3.958
	c1.236,0,2.467,0.31,3.561,0.897l10.81,5.812l8.31-11.607C120.182,28.713,120.104,27.692,119.462,27.037z"/>
<g>
	<path fill="#34824E" d="M113.259,48.745L97.757,40.41c-0.81-0.435-1.819-0.132-2.255,0.678L74.628,89.611L50.777,75
		c-0.81-0.436-1.819-0.131-2.254,0.678L40.188,91.18c-0.437,0.811-0.132,1.818,0.677,2.254l40.678,23.998
		c0.809,0.438,1.816,0.131,2.254-0.678l30.139-65.755C114.371,50.189,114.066,49.18,113.259,48.745z"/>
</g>
</svg>
