<?xml version="1.0" encoding="utf-8"?>
<!-- Generator: Adobe Illustrator 16.0.0, SVG Export Plug-In . SVG Version: 6.00 Build 0)  -->
<!DOCTYPE svg PUBLIC "-//W3C//DTD SVG 1.1//EN" "http://www.w3.org/Graphics/SVG/1.1/DTD/svg11.dtd">
<svg version="1.1" id="Layer_1" xmlns="http://www.w3.org/2000/svg" xmlns:xlink="http://www.w3.org/1999/xlink" x="0px" y="0px"
	 width="120px" height="120px" viewBox="0 0 120 120" enable-background="new 0 0 120 120" xml:space="preserve">
<path fill="#373737" d="M298.514-334.011c1.439,1.476,2.168,3.413,2.15,5.354c0.02-1.944-0.71-3.881-2.15-5.358
	c-0.803-0.821-6.623-6.769-15.205-15.188C291.891-340.782,297.712-334.833,298.514-334.011z"/>
<path fill="#373737" d="M299.252-324.325c0.934-1.304,1.398-2.819,1.412-4.331C300.65-327.145,300.186-325.629,299.252-324.325z"/>
<path fill="#373737" d="M119.464,27.503c-0.726-0.743-17.843-18.23-24.769-21.197C87.792,3.349,75.854,2.857,75.35,2.838
	c-0.686-0.024-1.338,0.33-1.693,0.917c-0.16,0.263-4.036,6.451-13.654,6.451c-9.619,0-13.495-6.188-13.649-6.441
	c-0.354-0.597-1.003-0.949-1.7-0.926c-0.505,0.02-12.441,0.511-19.345,3.468C18.38,9.273,1.263,26.761,0.538,27.503
	c-0.64,0.656-0.718,1.677-0.184,2.422l12.154,16.979c0.55,0.768,1.582,1.012,2.417,0.573l13.525-7.113v42.354
	c0,1.046,0.848,1.892,1.892,1.892h17.596l6.083-8.549l-16.804-23.62c-2.456-3.451-1.646-8.256,1.806-10.713L54.764,30.53
	c1.309-0.933,2.85-1.427,4.457-1.426c2.482,0,4.824,1.207,6.261,3.229l9.826,13.811l9.824-13.812
	c1.438-2.021,3.779-3.228,6.262-3.228c1.604,0,3.146,0.493,4.451,1.423l15.485,11.018l8.313-11.618
	C120.184,29.18,120.104,28.16,119.464,27.503z"/>
<g>
	<path fill="#ED1C24" d="M89.408,76.061l19.219-27.014c0.585-0.823,0.393-1.964-0.43-2.549L92.452,35.296
		c-0.822-0.586-1.966-0.393-2.55,0.43L75.309,56.241L60.711,35.726c-0.585-0.822-1.727-1.016-2.549-0.43L42.416,46.498
		c-0.822,0.585-1.015,1.726-0.43,2.549l19.219,27.014l-19.219,27.016c-0.585,0.822-0.393,1.965,0.43,2.55l15.746,11.202
		c0.823,0.584,1.965,0.395,2.55-0.432l14.597-20.516l14.596,20.516c0.586,0.822,1.729,1.016,2.551,0.432l15.745-11.202
		c0.821-0.585,1.015-1.728,0.43-2.55L89.408,76.061z"/>
</g>
</svg>
