<svg id="Main_content" data-name="Main content" xmlns="http://www.w3.org/2000/svg" viewBox="0 0 14.91 10"><defs><style>.cls-1{fill:#fbfbfb;}</style></defs><title>whistle</title><path class="cls-1" d="M8242.13,3661.3s-2.47-6-2.47-6h0a3.6,3.6,0,0,0-3.27-2.52s-6.23,0-6.34,0a3,3,0,0,0-2.23,1.63,5,5,0,0,0-.54,3.07c0.28,2.23,1.8,3.9,3.54,3.9h2.23l0.46,1.08a0.52,0.52,0,0,0,.48.32h6.67a0.53,0.53,0,0,0,.35-0.13l1-.85A0.5,0.5,0,0,0,8242.13,3661.3Zm-5.74-7.51a2.67,2.67,0,0,1,2.3,1.89l2.14,5.15h-5.55c-0.48-1.15-2.12-5.06-2.41-5.77a4.87,4.87,0,0,0-.77-1.27h4.28Z" transform="translate(-8227.24 -3652.78)"/><polygon class="cls-1" points="11.89 6.26 11.23 4.68 7.66 4.68 8.32 6.26 11.89 6.26"/></svg>