<svg id="Main_content" data-name="Main content" xmlns="http://www.w3.org/2000/svg" viewBox="0 0 9.82 10"><defs><style>.cls-1{fill:#fbfbfb}</style></defs><title>calendar</title><path class="cls-1" d="M7863.16 3653.58a.47.47 0 0 0 .48-.46v-.87a.48.48 0 0 0-1 0v.87a.47.47 0 0 0 .52.46zM7867.67 3653.58a.47.47 0 0 0 .48-.46v-.87a.48.48 0 0 0-1 0v.87a.47.47 0 0 0 .52.46z" transform="translate(-7860.5 -3651.78)"/><path class="cls-1" d="M7869.81 3652.65h-1.22v.46a.92.92 0 0 1-1.84 0v-.46h-2.66v.46a.92.92 0 0 1-1.84 0v-.46H7861a.5.5 0 0 0-.51.5v1.51h9.82v-1.51a.5.5 0 0 0-.5-.5zM7860.5 3661.28a.5.5 0 0 0 .51.5h8.79a.5.5 0 0 0 .51-.5v-6h-9.82v6zm6.81-4.61h2.24v1.57h-2.24v-1.57zm0 2.15h2.24v1.57h-2.24v-1.57zm-3-2.15h2.24v1.57h-2.24v-1.57zm0 2.15h2.24v1.57h-2.24v-1.57zm-2.95-2.15h2.24v1.57h-2.24v-1.57zm0 2.15h2.24v1.57h-2.24v-1.57z" transform="translate(-7860.5 -3651.78)"/></svg>