<svg id="Main_content" data-name="Main content" xmlns="http://www.w3.org/2000/svg" viewBox="0 0 12.24 11"><defs><style>.cls-1{fill:#fbfbfb}</style></defs><title>footballfield</title><g id="_Group_" data-name="&lt;Group&gt;"><path id="_Compound_Path_" data-name="&lt;Compound Path&gt;" class="cls-1" d="M8043.85 3652.55V3663a.27.27 0 0 0 .28.27h11.69a.27.27 0 0 0 .28-.27v-10.47a.27.27 0 0 0-.28-.27h-11.69a.27.27 0 0 0-.28.29zm.55 3.64h1v3.26h-1v-3.26zm0 3.8h1.29a.27.27 0 0 0 .28-.27v-3.8a.27.27 0 0 0-.28-.27h-1.29v-2.84h5.3v2.59a2.39 2.39 0 0 0 0 4.77v2.57h-5.3V3660zm5.3-.36a1.86 1.86 0 0 1 0-3.69v3.69zm.55-3.69a1.86 1.86 0 0 1 0 3.69v-3.69zm5.3 3.51h-1v-3.26h1v3.26zm0-3.8h-1.29a.27.27 0 0 0-.28.27v3.8a.27.27 0 0 0 .28.27h1.29v2.76h-5.3v-2.57a2.39 2.39 0 0 0 0-4.77v-2.59h5.3v2.84z" transform="translate(-8043.85 -3652.28)"/></g></svg>