<svg xmlns="http://www.w3.org/2000/svg" width="120" height="120" viewBox="0 0 120 120"><path fill="#373737" d="M298.514-334.011a7.56 7.56 0 0 1 0-.003c-.803-.821-6.624-6.769-15.205-15.188 8.582 8.42 14.403 14.369 15.205 15.191zM299.252-324.325z"/><g fill="#373737"><path d="M41.493 39.82c-4.081 4.284-8.438 10.134-9.964 13.617 1.763 3.511 4.554 7.993 7.054 10.255 0 0 4.637-2.877 14.042-6.536 0 0-.501-7.483.893-14.678-.001.001-5.548-2.401-12.025-2.658zM80 59.024s-5.729 4.427-14.211 6.712c.191 2.465.561 9.438.033 13.881l12.486 3.576s6.62-6.047 9.272-12.701c-1.268-2.246-4.514-7.81-7.58-11.468z"/><path d="M60 13.998c-24.806 0-45 20.188-45 45.004 0 24.807 20.194 45 45 45 24.812 0 45-20.193 45-45 0-24.815-20.188-45.004-45-45.004zm0 80.479c-3.328 0-6.553-.46-9.613-1.321l.033-.007-.044-6.68c-3.829-2.227-8.366-4.709-12.584-8.438-1.874 1.295-3.691 2.646-5.395 3.233-5.054-6.131-7.877-13.716-7.877-22.263 0-11.761 5.757-22.201 14.59-28.661l4.071 1.271s4.163-3.749 8.761-7.171A35.644 35.644 0 0 1 60 23.517c4.219 0 8.274.745 12.029 2.102l-3.388 9.097v.044s7.597 3.326 12.859 8.596l.016-.005c.06-.039 4.944-2.701 7.827-4.269A35.235 35.235 0 0 1 95.486 59c0 19.559-15.925 35.477-35.486 35.477z"/></g></svg>