<svg xmlns="http://www.w3.org/2000/svg" width="120" height="120" viewBox="0 0 120 120"><g fill="#C1272D"><path d="M36.465 35.609c-5.188 5.451-10.73 12.889-12.674 17.315 2.248 4.464 5.789 10.168 8.966 13.042 0 0 5.905-3.656 17.862-8.308 0 0-.638-9.518 1.132-18.666-.001.001-7.051-3.053-15.286-3.383zM85.439 60.036s-7.289 5.628-18.078 8.531c.244 3.138.711 11.996.041 17.654l15.875 4.552s8.426-7.694 11.797-16.155c-1.615-2.856-5.742-9.935-9.635-14.582z"/><path d="M59.999 2.773C28.444 2.773 2.773 28.446 2.773 60c0 31.555 25.671 57.227 57.226 57.227 31.556 0 57.228-25.672 57.228-57.227 0-31.554-25.672-57.227-57.228-57.227zm0 102.346c-4.231 0-8.331-.588-12.219-1.683l.041-.006-.063-8.501c-4.866-2.826-10.641-5.985-16.006-10.724-2.375 1.65-4.69 3.362-6.853 4.114C18.469 80.521 14.881 70.874 14.881 60c0-14.955 7.315-28.231 18.552-36.445l5.181 1.618s5.289-4.766 11.139-9.117a45.058 45.058 0 0 1 10.245-1.174c5.369 0 10.521.944 15.3 2.671L70.99 29.118l-.006.057s9.664 4.231 16.361 10.936c0 0 .012-.009.018-.011.076-.045 6.285-3.432 9.957-5.427a44.87 44.87 0 0 1 7.799 25.328c0 24.878-20.24 45.118-45.12 45.118z"/></g></svg>