<svg id="Main_content" data-name="Main content" xmlns="http://www.w3.org/2000/svg" viewBox="0 0 9.14 10"><defs><style>.cls-1{fill:#fbfbfb}</style></defs><title>shield</title><path class="cls-1" d="M7684.82 3652.78H7677a.63.63 0 0 0-.64.62v4.52c0 3.85 3.77 4.61 4.33 4.82a.66.66 0 0 0 .21 0 .66.66 0 0 0 .21 0c1.41-.47 4.39-1.3 4.39-4.82v-4.52a.63.63 0 0 0-.68-.62zm-4.55 2.65a.08.08 0 0 1 .08.08v.5a.08.08 0 0 1-.08.08h-.93v1a.08.08 0 0 1-.08.08h-.63a.08.08 0 0 1-.08-.08v-2.72a.08.08 0 0 1 .08-.08h1.71a.08.08 0 0 1 .08.08v.51a.08.08 0 0 1-.08.08h-1v.47h.93zm3.91 2.49c0 2.42-1.74 3.05-3.32 3.58a4.46 4.46 0 0 1-3-2l6.27-5.44v3.9z" transform="translate(-7676.33 -3652.78)"/><path class="cls-1" d="M7683 3657.21a1.69 1.69 0 0 0-.74-.13 1.5 1.5 0 0 0-1.62 1.53 1.42 1.42 0 0 0 .4 1 1.61 1.61 0 0 0 1.16.42 2 2 0 0 0 .76-.13.09.09 0 0 0 .05-.1l-.09-.48a.09.09 0 0 0 0-.06.1.1 0 0 0-.08 0 1.47 1.47 0 0 1-.5.08.8.8 0 0 1 0-1.61 1.28 1.28 0 0 1 .5.09.1.1 0 0 0 .08 0 .09.09 0 0 0 0-.06l.13-.48a.09.09 0 0 0-.05-.07z" transform="translate(-7676.33 -3652.78)"/></svg>