<svg xmlns="http://www.w3.org/2000/svg" width="120" height="120" viewBox="0 0 120 120"><path fill="#373737" d="M298.514-334.011a7.559 7.559 0 0 1 2.15 5.354 7.552 7.552 0 0 0-2.15-5.358c-.803-.821-6.623-6.769-15.205-15.188 8.582 8.421 14.403 14.37 15.205 15.192zM299.252-324.325zM119.462 27.037c-.726-.743-17.843-18.23-24.769-21.198C87.79 2.882 75.854 2.39 75.35 2.371a1.914 1.914 0 0 0-1.695.916C73.493 3.55 69.618 9.739 60 9.739S46.506 3.551 46.352 3.297a1.895 1.895 0 0 0-1.7-.926c-.505.019-12.442.511-19.346 3.468C18.38 8.807 1.262 26.294.538 27.037a1.891 1.891 0 0 0-.184 2.422l12.154 16.979a1.89 1.89 0 0 0 2.417.573l13.525-7.113v42.355c0 1.043.847 1.892 1.892 1.892h6.983l6.04-11.231a7.51 7.51 0 0 1 10.182-3.069l.146.078.142.086 18.086 11.08 18.203-42.313.101-.234.121-.225a7.511 7.511 0 0 1 6.623-3.958c1.236 0 2.467.31 3.561.897l10.81 5.812 8.31-11.607a1.894 1.894 0 0 0-.188-2.424z"/><path fill="#34824E" d="M113.259 48.745L97.757 40.41a1.666 1.666 0 0 0-2.255.678L74.628 89.611 50.777 75a1.664 1.664 0 0 0-2.254.678L40.188 91.18a1.663 1.663 0 0 0 .677 2.254l40.678 23.998a1.663 1.663 0 0 0 2.254-.678l30.139-65.755c.435-.81.13-1.819-.677-2.254z"/></svg>