<svg xmlns="http://www.w3.org/2000/svg" width="120" height="120" viewBox="0 0 120 120"><path fill="#373737" d="M298.514-334.011a7.559 7.559 0 0 1 2.15 5.354 7.552 7.552 0 0 0-2.15-5.358c-.803-.821-6.623-6.769-15.205-15.188 8.582 8.421 14.403 14.37 15.205 15.192zM299.252-324.325zM119.464 27.503c-.726-.743-17.843-18.23-24.769-21.197-6.903-2.957-18.841-3.449-19.345-3.468a1.909 1.909 0 0 0-1.693.917c-.16.263-4.036 6.451-13.654 6.451-9.619 0-13.495-6.188-13.649-6.441a1.896 1.896 0 0 0-1.7-.926c-.505.02-12.441.511-19.345 3.468C18.38 9.273 1.263 26.761.538 27.503a1.891 1.891 0 0 0-.184 2.422l12.154 16.979a1.89 1.89 0 0 0 2.417.573l13.525-7.113v42.354c0 1.046.848 1.892 1.892 1.892h17.596l6.083-8.549-16.804-23.62c-2.456-3.451-1.646-8.256 1.806-10.713L54.764 30.53a7.63 7.63 0 0 1 4.457-1.426 7.695 7.695 0 0 1 6.261 3.229l9.826 13.811 9.824-13.812a7.698 7.698 0 0 1 6.262-3.228c1.604 0 3.146.493 4.451 1.423l15.485 11.018 8.313-11.618a1.885 1.885 0 0 0-.179-2.424z"/><path fill="#ED1C24" d="M89.408 76.061l19.219-27.014a1.828 1.828 0 0 0-.43-2.549L92.452 35.296a1.828 1.828 0 0 0-2.55.43L75.309 56.241 60.711 35.726a1.828 1.828 0 0 0-2.549-.43L42.416 46.498a1.828 1.828 0 0 0-.43 2.549l19.219 27.014-19.219 27.016a1.829 1.829 0 0 0 .43 2.55l15.746 11.202a1.827 1.827 0 0 0 2.55-.432l14.597-20.516 14.596 20.516a1.832 1.832 0 0 0 2.551.432l15.745-11.202a1.83 1.83 0 0 0 .43-2.55L89.408 76.061z"/></svg>