<svg id="Main_content" data-name="Main content" xmlns="http://www.w3.org/2000/svg" viewBox="0 0 14.91 10"><defs><style>.cls-1{fill:#fbfbfb}</style></defs><title>whistle</title><path class="cls-1" d="M8242.13 3661.3l-2.47-6a3.6 3.6 0 0 0-3.27-2.52h-6.34a3 3 0 0 0-2.23 1.63 5 5 0 0 0-.54 3.07c.28 2.23 1.8 3.9 3.54 3.9h2.23l.46 1.08a.52.52 0 0 0 .48.32h6.67a.53.53 0 0 0 .35-.13l1-.85a.5.5 0 0 0 .12-.5zm-5.74-7.51a2.67 2.67 0 0 1 2.3 1.89l2.14 5.15h-5.55c-.48-1.15-2.12-5.06-2.41-5.77a4.87 4.87 0 0 0-.77-1.27h4.28z" transform="translate(-8227.24 -3652.78)"/><path class="cls-1" d="M11.89 6.26l-.66-1.58H7.66l.66 1.58h3.57z"/></svg>