<?xml version="1.0" standalone="no"?>
<!DOCTYPE svg PUBLIC "-//W3C//DTD SVG 20010904//EN"
 "http://www.w3.org/TR/2001/REC-SVG-20010904/DTD/svg10.dtd">
<svg version="1.0" xmlns="http://www.w3.org/2000/svg"
 width="260.000000pt" height="260.000000pt" viewBox="0 0 260.000000 260.000000"
 preserveAspectRatio="xMidYMid meet">
<metadata>
Created by potrace 1.11, written by Peter Selinger 2001-2013
</metadata>
<g transform="translate(0.000000,260.000000) scale(0.100000,-0.100000)"
fill="#000000" stroke="none">
<path d="M1165 2510 c-97 -11 -231 -44 -320 -79 -82 -31 -256 -131 -250 -141
2 -4 37 -10 77 -13 156 -13 364 -83 478 -160 71 -48 126 -94 120 -100 -3 -3
-37 6 -77 19 -127 42 -203 55 -378 61 -179 6 -346 -10 -447 -43 -80 -26 -69
-41 35 -49 212 -15 392 -62 529 -137 80 -44 192 -127 183 -136 -2 -3 -24 2
-47 11 -162 61 -381 87 -586 70 -139 -12 -287 -38 -309 -56 -32 -24 -12 -34
88 -41 55 -3 119 -10 142 -16 23 -5 56 -11 72 -14 137 -24 357 -136 435 -222
22 -24 22 -26 5 -19 -68 27 -178 57 -252 70 -106 19 -338 21 -467 5 l-96 -12
-7 -37 c-12 -56 -9 -309 5 -383 55 -296 231 -578 477 -763 123 -93 309 -175
477 -211 113 -25 361 -26 474 -1 378 81 680 311 849 647 87 174 125 338 125
538 0 210 -34 359 -122 540 -163 334 -476 579 -837 652 -114 23 -278 32 -376
20z"/>
</g>
</svg>
